<mxfile host="app.diagrams.net" modified="2022-11-27T14:30:51.337Z" agent="5.0 (Windows NT 10.0; Win64; x64) AppleWebKit/537.36 (KHTML, like Gecko) Chrome/107.0.0.0 Safari/537.36" etag="rPswCzVF4F5JbqFZ6ned" version="20.6.0" type="github">
  <diagram id="C5RBs43oDa-KdzZeNtuy" name="Page-1">
    <mxGraphModel dx="2074" dy="647" grid="1" gridSize="10" guides="1" tooltips="1" connect="1" arrows="1" fold="1" page="1" pageScale="1" pageWidth="827" pageHeight="1169" math="0" shadow="0">
      <root>
        <mxCell id="WIyWlLk6GJQsqaUBKTNV-0" />
        <mxCell id="WIyWlLk6GJQsqaUBKTNV-1" parent="WIyWlLk6GJQsqaUBKTNV-0" />
        <mxCell id="CyVpAFa2aRogbyEzgi_W-0" value="Student" style="swimlane;fontStyle=0;align=center;verticalAlign=top;childLayout=stackLayout;horizontal=1;startSize=26;horizontalStack=0;resizeParent=1;resizeLast=0;collapsible=1;marginBottom=0;rounded=0;shadow=0;strokeWidth=1;" vertex="1" parent="WIyWlLk6GJQsqaUBKTNV-1">
          <mxGeometry x="80" y="70" width="160" height="138" as="geometry">
            <mxRectangle x="130" y="380" width="160" height="26" as="alternateBounds" />
          </mxGeometry>
        </mxCell>
        <mxCell id="CyVpAFa2aRogbyEzgi_W-1" value="Average Mark" style="text;align=left;verticalAlign=top;spacingLeft=4;spacingRight=4;overflow=hidden;rotatable=0;points=[[0,0.5],[1,0.5]];portConstraint=eastwest;rounded=0;shadow=0;html=0;" vertex="1" parent="CyVpAFa2aRogbyEzgi_W-0">
          <mxGeometry y="26" width="160" height="26" as="geometry" />
        </mxCell>
        <mxCell id="CyVpAFa2aRogbyEzgi_W-2" value="" style="line;html=1;strokeWidth=1;align=left;verticalAlign=middle;spacingTop=-1;spacingLeft=3;spacingRight=3;rotatable=0;labelPosition=right;points=[];portConstraint=eastwest;" vertex="1" parent="CyVpAFa2aRogbyEzgi_W-0">
          <mxGeometry y="52" width="160" height="8" as="geometry" />
        </mxCell>
        <mxCell id="CyVpAFa2aRogbyEzgi_W-3" value="Is Eligible To Enroll" style="text;align=left;verticalAlign=top;spacingLeft=4;spacingRight=4;overflow=hidden;rotatable=0;points=[[0,0.5],[1,0.5]];portConstraint=eastwest;fontStyle=4" vertex="1" parent="CyVpAFa2aRogbyEzgi_W-0">
          <mxGeometry y="60" width="160" height="26" as="geometry" />
        </mxCell>
        <mxCell id="CyVpAFa2aRogbyEzgi_W-4" value="Get Seminars Taken" style="text;align=left;verticalAlign=top;spacingLeft=4;spacingRight=4;overflow=hidden;rotatable=0;points=[[0,0.5],[1,0.5]];portConstraint=eastwest;" vertex="1" parent="CyVpAFa2aRogbyEzgi_W-0">
          <mxGeometry y="86" width="160" height="26" as="geometry" />
        </mxCell>
        <mxCell id="CyVpAFa2aRogbyEzgi_W-5" value="EMPLOYEE" style="swimlane;fontStyle=1;align=center;verticalAlign=top;childLayout=stackLayout;horizontal=1;startSize=26;horizontalStack=0;resizeParent=1;resizeLast=0;collapsible=1;marginBottom=0;rounded=0;shadow=0;strokeWidth=1;" vertex="1" parent="WIyWlLk6GJQsqaUBKTNV-1">
          <mxGeometry x="508" y="120" width="160" height="270" as="geometry">
            <mxRectangle x="550" y="140" width="160" height="26" as="alternateBounds" />
          </mxGeometry>
        </mxCell>
        <mxCell id="CyVpAFa2aRogbyEzgi_W-6" value="EmployeeID" style="text;align=left;verticalAlign=top;spacingLeft=4;spacingRight=4;overflow=hidden;rotatable=0;points=[[0,0.5],[1,0.5]];portConstraint=eastwest;" vertex="1" parent="CyVpAFa2aRogbyEzgi_W-5">
          <mxGeometry y="26" width="160" height="26" as="geometry" />
        </mxCell>
        <mxCell id="CyVpAFa2aRogbyEzgi_W-7" value="" style="endArrow=none;html=1;rounded=0;" edge="1" parent="CyVpAFa2aRogbyEzgi_W-5">
          <mxGeometry width="50" height="50" relative="1" as="geometry">
            <mxPoint x="2" y="51" as="sourcePoint" />
            <mxPoint x="92" y="51" as="targetPoint" />
          </mxGeometry>
        </mxCell>
        <mxCell id="CyVpAFa2aRogbyEzgi_W-8" value="FirstName" style="text;align=left;verticalAlign=top;spacingLeft=4;spacingRight=4;overflow=hidden;rotatable=0;points=[[0,0.5],[1,0.5]];portConstraint=eastwest;rounded=0;shadow=0;html=0;" vertex="1" parent="CyVpAFa2aRogbyEzgi_W-5">
          <mxGeometry y="52" width="160" height="26" as="geometry" />
        </mxCell>
        <mxCell id="CyVpAFa2aRogbyEzgi_W-9" value="LastName" style="text;align=left;verticalAlign=top;spacingLeft=4;spacingRight=4;overflow=hidden;rotatable=0;points=[[0,0.5],[1,0.5]];portConstraint=eastwest;rounded=0;shadow=0;html=0;" vertex="1" parent="CyVpAFa2aRogbyEzgi_W-5">
          <mxGeometry y="78" width="160" height="26" as="geometry" />
        </mxCell>
        <mxCell id="CyVpAFa2aRogbyEzgi_W-10" value="DateOfBrth" style="text;align=left;verticalAlign=top;spacingLeft=4;spacingRight=4;overflow=hidden;rotatable=0;points=[[0,0.5],[1,0.5]];portConstraint=eastwest;rounded=0;shadow=0;html=0;" vertex="1" parent="CyVpAFa2aRogbyEzgi_W-5">
          <mxGeometry y="104" width="160" height="26" as="geometry" />
        </mxCell>
        <mxCell id="CyVpAFa2aRogbyEzgi_W-11" value="Gender&#xa;" style="text;align=left;verticalAlign=top;spacingLeft=4;spacingRight=4;overflow=hidden;rotatable=0;points=[[0,0.5],[1,0.5]];portConstraint=eastwest;rounded=0;shadow=0;html=0;" vertex="1" parent="CyVpAFa2aRogbyEzgi_W-5">
          <mxGeometry y="130" width="160" height="26" as="geometry" />
        </mxCell>
        <mxCell id="CyVpAFa2aRogbyEzgi_W-12" value="Email" style="text;align=left;verticalAlign=top;spacingLeft=4;spacingRight=4;overflow=hidden;rotatable=0;points=[[0,0.5],[1,0.5]];portConstraint=eastwest;" vertex="1" parent="CyVpAFa2aRogbyEzgi_W-5">
          <mxGeometry y="156" width="160" height="26" as="geometry" />
        </mxCell>
        <mxCell id="CyVpAFa2aRogbyEzgi_W-13" value="Phone" style="text;align=left;verticalAlign=top;spacingLeft=4;spacingRight=4;overflow=hidden;rotatable=0;points=[[0,0.5],[1,0.5]];portConstraint=eastwest;" vertex="1" parent="CyVpAFa2aRogbyEzgi_W-5">
          <mxGeometry y="182" width="160" height="28" as="geometry" />
        </mxCell>
        <mxCell id="CyVpAFa2aRogbyEzgi_W-14" value="Address" style="text;html=1;align=left;verticalAlign=top;resizable=0;points=[];autosize=1;strokeColor=none;fillColor=none;" vertex="1" parent="CyVpAFa2aRogbyEzgi_W-5">
          <mxGeometry y="210" width="160" height="30" as="geometry" />
        </mxCell>
        <mxCell id="CyVpAFa2aRogbyEzgi_W-15" value="EmployeeType" style="text;html=1;align=left;verticalAlign=top;resizable=0;points=[];autosize=1;strokeColor=none;fillColor=none;" vertex="1" parent="CyVpAFa2aRogbyEzgi_W-5">
          <mxGeometry y="240" width="160" height="30" as="geometry" />
        </mxCell>
        <mxCell id="CyVpAFa2aRogbyEzgi_W-16" value="" style="endArrow=none;html=1;rounded=0;entryX=0.461;entryY=0.994;entryDx=0;entryDy=0;entryPerimeter=0;" edge="1" parent="WIyWlLk6GJQsqaUBKTNV-1" target="CyVpAFa2aRogbyEzgi_W-15">
          <mxGeometry width="50" height="50" relative="1" as="geometry">
            <mxPoint x="582" y="470" as="sourcePoint" />
            <mxPoint x="630" y="410" as="targetPoint" />
          </mxGeometry>
        </mxCell>
        <mxCell id="CyVpAFa2aRogbyEzgi_W-17" value="d" style="ellipse;whiteSpace=wrap;html=1;aspect=fixed;" vertex="1" parent="WIyWlLk6GJQsqaUBKTNV-1">
          <mxGeometry x="560" y="458" width="40" height="40" as="geometry" />
        </mxCell>
        <mxCell id="CyVpAFa2aRogbyEzgi_W-18" value="" style="endArrow=none;html=1;rounded=0;edgeStyle=orthogonalEdgeStyle;entryX=0;entryY=0.55;entryDx=0;entryDy=0;entryPerimeter=0;" edge="1" parent="WIyWlLk6GJQsqaUBKTNV-1" target="CyVpAFa2aRogbyEzgi_W-17">
          <mxGeometry width="50" height="50" relative="1" as="geometry">
            <mxPoint x="450" y="590" as="sourcePoint" />
            <mxPoint x="550" y="480" as="targetPoint" />
            <Array as="points">
              <mxPoint x="450" y="480" />
            </Array>
          </mxGeometry>
        </mxCell>
        <mxCell id="CyVpAFa2aRogbyEzgi_W-19" value="ADMIN" style="swimlane;fontStyle=1;align=center;verticalAlign=top;childLayout=stackLayout;horizontal=1;startSize=26;horizontalStack=0;resizeParent=1;resizeLast=0;collapsible=1;marginBottom=0;rounded=0;shadow=0;strokeWidth=1;" vertex="1" parent="WIyWlLk6GJQsqaUBKTNV-1">
          <mxGeometry x="390" y="585" width="160" height="105" as="geometry">
            <mxRectangle x="550" y="140" width="160" height="26" as="alternateBounds" />
          </mxGeometry>
        </mxCell>
        <mxCell id="CyVpAFa2aRogbyEzgi_W-20" value="DepartmentID" style="text;align=left;verticalAlign=top;spacingLeft=4;spacingRight=4;overflow=hidden;rotatable=0;points=[[0,0.5],[1,0.5]];portConstraint=eastwest;" vertex="1" parent="CyVpAFa2aRogbyEzgi_W-19">
          <mxGeometry y="26" width="160" height="26" as="geometry" />
        </mxCell>
        <mxCell id="CyVpAFa2aRogbyEzgi_W-21" value="" style="endArrow=none;html=1;rounded=0;dashed=1;" edge="1" parent="CyVpAFa2aRogbyEzgi_W-19">
          <mxGeometry width="50" height="50" relative="1" as="geometry">
            <mxPoint x="2" y="51" as="sourcePoint" />
            <mxPoint x="92" y="51" as="targetPoint" />
          </mxGeometry>
        </mxCell>
        <mxCell id="CyVpAFa2aRogbyEzgi_W-22" value="Rank" style="text;align=left;verticalAlign=top;spacingLeft=4;spacingRight=4;overflow=hidden;rotatable=0;points=[[0,0.5],[1,0.5]];portConstraint=eastwest;rounded=0;shadow=0;html=0;" vertex="1" parent="CyVpAFa2aRogbyEzgi_W-19">
          <mxGeometry y="52" width="160" height="26" as="geometry" />
        </mxCell>
        <mxCell id="CyVpAFa2aRogbyEzgi_W-23" value="JoinDateÂ " style="text;align=left;verticalAlign=top;spacingLeft=4;spacingRight=4;overflow=hidden;rotatable=0;points=[[0,0.5],[1,0.5]];portConstraint=eastwest;rounded=0;shadow=0;html=0;" vertex="1" parent="CyVpAFa2aRogbyEzgi_W-19">
          <mxGeometry y="78" width="160" height="26" as="geometry" />
        </mxCell>
        <mxCell id="CyVpAFa2aRogbyEzgi_W-24" value="FACULTY" style="swimlane;fontStyle=1;align=center;verticalAlign=top;childLayout=stackLayout;horizontal=1;startSize=26;horizontalStack=0;resizeParent=1;resizeLast=0;collapsible=1;marginBottom=0;rounded=0;shadow=0;strokeWidth=1;" vertex="1" parent="WIyWlLk6GJQsqaUBKTNV-1">
          <mxGeometry x="610" y="585" width="160" height="105" as="geometry">
            <mxRectangle x="550" y="140" width="160" height="26" as="alternateBounds" />
          </mxGeometry>
        </mxCell>
        <mxCell id="CyVpAFa2aRogbyEzgi_W-25" value="DepartmentID" style="text;align=left;verticalAlign=top;spacingLeft=4;spacingRight=4;overflow=hidden;rotatable=0;points=[[0,0.5],[1,0.5]];portConstraint=eastwest;" vertex="1" parent="CyVpAFa2aRogbyEzgi_W-24">
          <mxGeometry y="26" width="160" height="26" as="geometry" />
        </mxCell>
        <mxCell id="CyVpAFa2aRogbyEzgi_W-26" value="" style="endArrow=none;html=1;rounded=0;dashed=1;" edge="1" parent="CyVpAFa2aRogbyEzgi_W-24">
          <mxGeometry width="50" height="50" relative="1" as="geometry">
            <mxPoint x="2" y="51" as="sourcePoint" />
            <mxPoint x="92" y="51" as="targetPoint" />
          </mxGeometry>
        </mxCell>
        <mxCell id="CyVpAFa2aRogbyEzgi_W-27" value="Rank" style="text;align=left;verticalAlign=top;spacingLeft=4;spacingRight=4;overflow=hidden;rotatable=0;points=[[0,0.5],[1,0.5]];portConstraint=eastwest;rounded=0;shadow=0;html=0;" vertex="1" parent="CyVpAFa2aRogbyEzgi_W-24">
          <mxGeometry y="52" width="160" height="26" as="geometry" />
        </mxCell>
        <mxCell id="CyVpAFa2aRogbyEzgi_W-28" value="JoinDateÂ " style="text;align=left;verticalAlign=top;spacingLeft=4;spacingRight=4;overflow=hidden;rotatable=0;points=[[0,0.5],[1,0.5]];portConstraint=eastwest;rounded=0;shadow=0;html=0;" vertex="1" parent="CyVpAFa2aRogbyEzgi_W-24">
          <mxGeometry y="78" width="160" height="26" as="geometry" />
        </mxCell>
        <mxCell id="CyVpAFa2aRogbyEzgi_W-29" value="" style="endArrow=none;html=1;rounded=0;edgeStyle=orthogonalEdgeStyle;entryX=1;entryY=0.5;entryDx=0;entryDy=0;" edge="1" parent="WIyWlLk6GJQsqaUBKTNV-1" target="CyVpAFa2aRogbyEzgi_W-17">
          <mxGeometry width="50" height="50" relative="1" as="geometry">
            <mxPoint x="680" y="585" as="sourcePoint" />
            <mxPoint x="790" y="475" as="targetPoint" />
            <Array as="points">
              <mxPoint x="680" y="480" />
              <mxPoint x="600" y="480" />
            </Array>
          </mxGeometry>
        </mxCell>
        <mxCell id="CyVpAFa2aRogbyEzgi_W-30" value="SCHOOL" style="swimlane;fontStyle=1;align=center;verticalAlign=top;childLayout=stackLayout;horizontal=1;startSize=26;horizontalStack=0;resizeParent=1;resizeLast=0;collapsible=1;marginBottom=0;rounded=0;shadow=0;strokeWidth=1;" vertex="1" parent="WIyWlLk6GJQsqaUBKTNV-1">
          <mxGeometry x="110" y="370" width="160" height="80" as="geometry">
            <mxRectangle x="550" y="140" width="160" height="26" as="alternateBounds" />
          </mxGeometry>
        </mxCell>
        <mxCell id="CyVpAFa2aRogbyEzgi_W-31" value="SchoolID" style="text;align=left;verticalAlign=top;spacingLeft=4;spacingRight=4;overflow=hidden;rotatable=0;points=[[0,0.5],[1,0.5]];portConstraint=eastwest;" vertex="1" parent="CyVpAFa2aRogbyEzgi_W-30">
          <mxGeometry y="26" width="160" height="26" as="geometry" />
        </mxCell>
        <mxCell id="CyVpAFa2aRogbyEzgi_W-32" value="" style="endArrow=none;html=1;rounded=0;" edge="1" parent="CyVpAFa2aRogbyEzgi_W-30">
          <mxGeometry width="50" height="50" relative="1" as="geometry">
            <mxPoint x="2" y="51" as="sourcePoint" />
            <mxPoint x="92" y="51" as="targetPoint" />
          </mxGeometry>
        </mxCell>
        <mxCell id="CyVpAFa2aRogbyEzgi_W-33" value="SchoolName" style="text;align=left;verticalAlign=top;spacingLeft=4;spacingRight=4;overflow=hidden;rotatable=0;points=[[0,0.5],[1,0.5]];portConstraint=eastwest;rounded=0;shadow=0;html=0;" vertex="1" parent="CyVpAFa2aRogbyEzgi_W-30">
          <mxGeometry y="52" width="160" height="26" as="geometry" />
        </mxCell>
        <mxCell id="CyVpAFa2aRogbyEzgi_W-34" value="" style="endArrow=ERoneToMany;html=1;rounded=0;edgeStyle=elbowEdgeStyle;exitX=1;exitY=0.5;exitDx=0;exitDy=0;startArrow=ERmandOne;startFill=0;endFill=0;" edge="1" parent="WIyWlLk6GJQsqaUBKTNV-1" source="CyVpAFa2aRogbyEzgi_W-31">
          <mxGeometry width="50" height="50" relative="1" as="geometry">
            <mxPoint x="390" y="470" as="sourcePoint" />
            <mxPoint x="390" y="632" as="targetPoint" />
          </mxGeometry>
        </mxCell>
        <mxCell id="CyVpAFa2aRogbyEzgi_W-35" value="Run by Dean" style="text;html=1;align=center;verticalAlign=middle;resizable=0;points=[];autosize=1;strokeColor=none;fillColor=none;" vertex="1" parent="WIyWlLk6GJQsqaUBKTNV-1">
          <mxGeometry x="325" y="440" width="90" height="30" as="geometry" />
        </mxCell>
        <mxCell id="CyVpAFa2aRogbyEzgi_W-36" value="DEPARTMENT" style="swimlane;fontStyle=1;align=center;verticalAlign=top;childLayout=stackLayout;horizontal=1;startSize=26;horizontalStack=0;resizeParent=1;resizeLast=0;collapsible=1;marginBottom=0;rounded=0;shadow=0;strokeWidth=1;" vertex="1" parent="WIyWlLk6GJQsqaUBKTNV-1">
          <mxGeometry x="120" y="660" width="160" height="110" as="geometry">
            <mxRectangle x="550" y="140" width="160" height="26" as="alternateBounds" />
          </mxGeometry>
        </mxCell>
        <mxCell id="CyVpAFa2aRogbyEzgi_W-37" value="DepartmentID" style="text;align=left;verticalAlign=top;spacingLeft=4;spacingRight=4;overflow=hidden;rotatable=0;points=[[0,0.5],[1,0.5]];portConstraint=eastwest;" vertex="1" parent="CyVpAFa2aRogbyEzgi_W-36">
          <mxGeometry y="26" width="160" height="26" as="geometry" />
        </mxCell>
        <mxCell id="CyVpAFa2aRogbyEzgi_W-38" value="" style="endArrow=none;html=1;rounded=0;" edge="1" parent="CyVpAFa2aRogbyEzgi_W-36">
          <mxGeometry width="50" height="50" relative="1" as="geometry">
            <mxPoint x="2" y="51" as="sourcePoint" />
            <mxPoint x="92" y="51" as="targetPoint" />
          </mxGeometry>
        </mxCell>
        <mxCell id="CyVpAFa2aRogbyEzgi_W-39" value="DepartmentName" style="text;align=left;verticalAlign=top;spacingLeft=4;spacingRight=4;overflow=hidden;rotatable=0;points=[[0,0.5],[1,0.5]];portConstraint=eastwest;rounded=0;shadow=0;html=0;" vertex="1" parent="CyVpAFa2aRogbyEzgi_W-36">
          <mxGeometry y="52" width="160" height="26" as="geometry" />
        </mxCell>
        <mxCell id="CyVpAFa2aRogbyEzgi_W-40" value="&amp;nbsp;SchoollD" style="text;html=1;align=left;verticalAlign=top;resizable=0;points=[];autosize=1;strokeColor=none;fillColor=none;" vertex="1" parent="CyVpAFa2aRogbyEzgi_W-36">
          <mxGeometry y="78" width="160" height="30" as="geometry" />
        </mxCell>
        <mxCell id="CyVpAFa2aRogbyEzgi_W-41" value="" style="endArrow=none;dashed=1;html=1;rounded=0;" edge="1" parent="CyVpAFa2aRogbyEzgi_W-36">
          <mxGeometry width="50" height="50" relative="1" as="geometry">
            <mxPoint y="100" as="sourcePoint" />
            <mxPoint x="90" y="100" as="targetPoint" />
            <Array as="points" />
          </mxGeometry>
        </mxCell>
        <mxCell id="CyVpAFa2aRogbyEzgi_W-42" value="" style="endArrow=ERoneToMany;html=1;rounded=0;edgeStyle=elbowEdgeStyle;entryX=0.994;entryY=0.951;entryDx=0;entryDy=0;entryPerimeter=0;exitX=1;exitY=0.5;exitDx=0;exitDy=0;startArrow=ERmandOne;startFill=0;endFill=0;" edge="1" parent="WIyWlLk6GJQsqaUBKTNV-1" source="CyVpAFa2aRogbyEzgi_W-37" target="CyVpAFa2aRogbyEzgi_W-31">
          <mxGeometry width="50" height="50" relative="1" as="geometry">
            <mxPoint x="330" y="680" as="sourcePoint" />
            <mxPoint x="290" y="430" as="targetPoint" />
            <Array as="points">
              <mxPoint x="310" y="560" />
            </Array>
          </mxGeometry>
        </mxCell>
        <mxCell id="CyVpAFa2aRogbyEzgi_W-43" value="Contains" style="text;html=1;align=center;verticalAlign=middle;resizable=0;points=[];autosize=1;strokeColor=none;fillColor=none;" vertex="1" parent="WIyWlLk6GJQsqaUBKTNV-1">
          <mxGeometry x="250" y="530" width="70" height="30" as="geometry" />
        </mxCell>
        <mxCell id="CyVpAFa2aRogbyEzgi_W-44" value="" style="endArrow=ERoneToMany;html=1;rounded=0;edgeStyle=elbowEdgeStyle;startArrow=ERmandOne;startFill=0;endFill=0;exitX=1.017;exitY=0.152;exitDx=0;exitDy=0;exitPerimeter=0;" edge="1" parent="WIyWlLk6GJQsqaUBKTNV-1" source="CyVpAFa2aRogbyEzgi_W-40" target="CyVpAFa2aRogbyEzgi_W-23">
          <mxGeometry width="50" height="50" relative="1" as="geometry">
            <mxPoint x="290" y="730" as="sourcePoint" />
            <mxPoint x="445.52" y="710" as="targetPoint" />
            <Array as="points">
              <mxPoint x="410" y="750" />
              <mxPoint x="440" y="740" />
              <mxPoint x="440" y="760" />
              <mxPoint x="450" y="879.27" />
            </Array>
          </mxGeometry>
        </mxCell>
        <mxCell id="CyVpAFa2aRogbyEzgi_W-45" value="Managed by &lt;br style=&quot;font-size: 11px;&quot;&gt;Department Head&amp;nbsp;" style="text;html=1;align=center;verticalAlign=middle;resizable=0;points=[];autosize=1;strokeColor=none;fillColor=none;fontSize=11;" vertex="1" parent="WIyWlLk6GJQsqaUBKTNV-1">
          <mxGeometry x="290" y="710" width="110" height="40" as="geometry" />
        </mxCell>
        <mxCell id="CyVpAFa2aRogbyEzgi_W-46" value="" style="endArrow=ERoneToMany;html=1;rounded=0;edgeStyle=elbowEdgeStyle;startArrow=ERmandOne;startFill=0;endFill=0;exitX=0.999;exitY=0.667;exitDx=0;exitDy=0;exitPerimeter=0;" edge="1" parent="WIyWlLk6GJQsqaUBKTNV-1" source="CyVpAFa2aRogbyEzgi_W-40">
          <mxGeometry width="50" height="50" relative="1" as="geometry">
            <mxPoint x="292.72" y="742.56" as="sourcePoint" />
            <mxPoint x="680" y="690" as="targetPoint" />
            <Array as="points">
              <mxPoint x="680" y="780" />
              <mxPoint x="420" y="750" />
              <mxPoint x="450" y="750" />
              <mxPoint x="450" y="770" />
              <mxPoint x="460" y="889.27" />
            </Array>
          </mxGeometry>
        </mxCell>
        <mxCell id="CyVpAFa2aRogbyEzgi_W-47" value="Have" style="text;html=1;align=center;verticalAlign=middle;resizable=0;points=[];autosize=1;strokeColor=none;fillColor=none;fontSize=11;" vertex="1" parent="WIyWlLk6GJQsqaUBKTNV-1">
          <mxGeometry x="590" y="730" width="50" height="30" as="geometry" />
        </mxCell>
        <mxCell id="CyVpAFa2aRogbyEzgi_W-48" value="PROGRAM" style="swimlane;fontStyle=1;align=center;verticalAlign=top;childLayout=stackLayout;horizontal=1;startSize=26;horizontalStack=0;resizeParent=1;resizeLast=0;collapsible=1;marginBottom=0;rounded=0;shadow=0;strokeWidth=1;" vertex="1" parent="WIyWlLk6GJQsqaUBKTNV-1">
          <mxGeometry x="-80" y="520" width="160" height="110" as="geometry">
            <mxRectangle x="550" y="140" width="160" height="26" as="alternateBounds" />
          </mxGeometry>
        </mxCell>
        <mxCell id="CyVpAFa2aRogbyEzgi_W-49" value="ProgramID" style="text;align=left;verticalAlign=top;spacingLeft=4;spacingRight=4;overflow=hidden;rotatable=0;points=[[0,0.5],[1,0.5]];portConstraint=eastwest;" vertex="1" parent="CyVpAFa2aRogbyEzgi_W-48">
          <mxGeometry y="26" width="160" height="26" as="geometry" />
        </mxCell>
        <mxCell id="CyVpAFa2aRogbyEzgi_W-50" value="" style="endArrow=none;html=1;rounded=0;" edge="1" parent="CyVpAFa2aRogbyEzgi_W-48">
          <mxGeometry width="50" height="50" relative="1" as="geometry">
            <mxPoint x="2" y="51" as="sourcePoint" />
            <mxPoint x="92" y="51" as="targetPoint" />
          </mxGeometry>
        </mxCell>
        <mxCell id="CyVpAFa2aRogbyEzgi_W-51" value="ProgramName" style="text;align=left;verticalAlign=top;spacingLeft=4;spacingRight=4;overflow=hidden;rotatable=0;points=[[0,0.5],[1,0.5]];portConstraint=eastwest;rounded=0;shadow=0;html=0;" vertex="1" parent="CyVpAFa2aRogbyEzgi_W-48">
          <mxGeometry y="52" width="160" height="26" as="geometry" />
        </mxCell>
        <mxCell id="CyVpAFa2aRogbyEzgi_W-52" value="&amp;nbsp;DepartmentID" style="text;html=1;align=left;verticalAlign=top;resizable=0;points=[];autosize=1;strokeColor=none;fillColor=none;" vertex="1" parent="CyVpAFa2aRogbyEzgi_W-48">
          <mxGeometry y="78" width="160" height="30" as="geometry" />
        </mxCell>
        <mxCell id="CyVpAFa2aRogbyEzgi_W-53" value="" style="endArrow=none;dashed=1;html=1;rounded=0;" edge="1" parent="CyVpAFa2aRogbyEzgi_W-48">
          <mxGeometry width="50" height="50" relative="1" as="geometry">
            <mxPoint y="100" as="sourcePoint" />
            <mxPoint x="90" y="100" as="targetPoint" />
            <Array as="points" />
          </mxGeometry>
        </mxCell>
        <mxCell id="CyVpAFa2aRogbyEzgi_W-54" value="" style="endArrow=ERoneToMany;html=1;rounded=0;edgeStyle=elbowEdgeStyle;startArrow=ERmandOne;startFill=0;endFill=0;entryX=1;entryY=0.5;entryDx=0;entryDy=0;exitX=0.75;exitY=0;exitDx=0;exitDy=0;" edge="1" parent="WIyWlLk6GJQsqaUBKTNV-1" source="CyVpAFa2aRogbyEzgi_W-36" target="CyVpAFa2aRogbyEzgi_W-49">
          <mxGeometry width="50" height="50" relative="1" as="geometry">
            <mxPoint x="240" y="620" as="sourcePoint" />
            <mxPoint x="240" y="541" as="targetPoint" />
            <Array as="points">
              <mxPoint x="240" y="570" />
              <mxPoint x="270" y="592" />
              <mxPoint x="270" y="612" />
              <mxPoint x="280" y="731.27" />
            </Array>
          </mxGeometry>
        </mxCell>
        <mxCell id="CyVpAFa2aRogbyEzgi_W-55" value="Belongs to" style="text;html=1;align=center;verticalAlign=middle;resizable=0;points=[];autosize=1;strokeColor=none;fillColor=none;fontSize=11;" vertex="1" parent="WIyWlLk6GJQsqaUBKTNV-1">
          <mxGeometry x="90" y="535" width="80" height="30" as="geometry" />
        </mxCell>
        <mxCell id="CyVpAFa2aRogbyEzgi_W-56" value="Employee Type" style="text;html=1;align=center;verticalAlign=middle;resizable=0;points=[];autosize=1;strokeColor=none;fillColor=none;fontSize=11;" vertex="1" parent="WIyWlLk6GJQsqaUBKTNV-1">
          <mxGeometry x="575" y="420" width="100" height="30" as="geometry" />
        </mxCell>
        <mxCell id="CyVpAFa2aRogbyEzgi_W-57" value="&quot;A&quot;" style="text;html=1;align=center;verticalAlign=middle;resizable=0;points=[];autosize=1;strokeColor=none;fillColor=none;fontSize=11;" vertex="1" parent="WIyWlLk6GJQsqaUBKTNV-1">
          <mxGeometry x="440" y="475" width="40" height="30" as="geometry" />
        </mxCell>
        <mxCell id="CyVpAFa2aRogbyEzgi_W-58" value="&quot;F&quot;" style="text;html=1;align=center;verticalAlign=middle;resizable=0;points=[];autosize=1;strokeColor=none;fillColor=none;fontSize=11;" vertex="1" parent="WIyWlLk6GJQsqaUBKTNV-1">
          <mxGeometry x="670" y="475" width="40" height="30" as="geometry" />
        </mxCell>
      </root>
    </mxGraphModel>
  </diagram>
</mxfile>
